<svg xmlns="http://www.w3.org/2000/svg" viewBox="0 0 100 100" version="1.1">
    <title>close</title>
    <g stroke="none" stroke-width="1" fill="none" fill-rule="evenodd">
        <g fill="#fff">
            <path d="M60.6856187,50 L92.7424749,82.0568562 C95.7525084,85.0668896 95.7525084,89.7324415 92.7424749,92.7424749 L92.7424749,92.7424749 C89.7324415,95.7525084 85.0668896,95.7525084 82.0568562,92.7424749 L50,60.6856187 L17.9431438,92.7424749 C14.9331104,95.7525084 10.2675585,95.7525084 7.25752508,92.7424749 C4.24749164,89.7324415 4.24749164,85.0668896 7.25752508,82.0568562 L39.3143813,50 L7.25752508,17.9431438 C4.24749164,14.9331104 4.24749164,10.2675585 7.25752508,7.25752508 C10.2675585,4.24749164 14.9331104,4.24749164 17.9431438,7.25752508 L50,39.3143813 L82.0568562,7.25752508 C85.0668896,4.24749164 89.7324415,4.24749164 92.7424749,7.25752508 C95.7525084,10.2675585 95.7525084,14.9331104 92.7424749,17.9431438 L60.6856187,50 L60.6856187,50 Z"/>
        </g>
    </g>
</svg>