<?xml version="1.0" standalone="no"?>
<svg version="1.0" xmlns="http://www.w3.org/2000/svg"
     width="50.000000pt" height="50.000000pt" viewBox="0 0 50.000000 50.000000"
     preserveAspectRatio="xMidYMid meet">

    <g transform="translate(0.000000,50.000000) scale(0.100000,-0.100000)"
       fill="#ffffff" stroke="none">
        <path d="M108 448 c-12 -36 -20 -44 -56 -56 -23 -7 -42 -17 -42 -22 0 -5 19
-15 42 -22 36 -12 44 -20 56 -56 7 -23 17 -42 22 -42 5 0 15 19 22 42 12 36
20 44 56 56 23 7 42 17 42 22 0 5 -19 15 -42 22 -36 12 -44 20 -56 56 -7 23
-17 42 -22 42 -5 0 -15 -19 -22 -42z"/>
        <path d="M327 383 c-2 -4 -12 -31 -21 -60 -17 -50 -19 -52 -74 -71 -31 -10
-56 -23 -54 -28 1 -5 26 -17 56 -27 53 -18 55 -20 74 -75 10 -31 22 -57 27
-57 5 0 17 26 27 57 19 55 21 57 74 75 30 10 54 23 54 28 0 6 -24 18 -54 28
-53 18 -56 20 -72 70 -18 56 -29 74 -37 60z"/>
        <path d="M71 160 c-7 -20 -21 -34 -41 -41 -16 -6 -30 -15 -30 -19 0 -4 14 -13
30 -19 20 -7 34 -21 41 -41 14 -38 24 -38 38 0 7 20 21 34 41 41 16 6 30 15
30 19 0 4 -14 13 -30 19 -20 7 -34 21 -41 41 -6 16 -15 30 -19 30 -4 0 -13
-14 -19 -30z"/>
    </g>
</svg>
